<svg xmlns="http://www.w3.org/2000/svg" version="1.1" xmlns:xlink="http://www.w3.org/1999/xlink" xmlns:svgjs="http://svgjs.dev/svgjs" width="1500" height="329" viewBox="0 0 1500 329"><g transform="matrix(1,0,0,1,-0.9090909090909918,0.6708688290732425)"><svg viewBox="0 0 396 87" data-background-color="#ffffff" preserveAspectRatio="xMidYMid meet" height="329" width="1500" xmlns="http://www.w3.org/2000/svg" xmlns:xlink="http://www.w3.org/1999/xlink"><g id="tight-bounds" transform="matrix(1,0,0,1,0.2400000000000091,-0.17740300343274384)"><svg viewBox="0 0 395.52 87.3548060068655" height="87.3548060068655" width="395.52"><g><svg viewBox="0 0 395.52 87.3548060068655" height="87.3548060068655" width="395.52"><g><svg viewBox="0 0 395.52 87.3548060068655" height="87.3548060068655" width="395.52"><g id="textblocktransform"><svg viewBox="0 0 395.52 87.3548060068655" height="87.3548060068655" width="395.52" id="textblock"><g><svg viewBox="0 0 395.52 47.11500823421775" height="47.11500823421775" width="395.52"><g transform="matrix(1,0,0,1,0,0)"><svg width="395.52" viewBox="3.5 -32.05 273.23 32.55" height="47.11500823421775" data-palette-color="#212038"><path d="M27.55 0L12.65 0Q9.1 0 7.1-1 5.1-2 4.3-4 3.5-6 3.5-8.95L3.5-8.95 3.5-20.1Q3.5-24.9 5.65-27.18 7.8-29.45 12.65-29.45L12.65-29.45 27.7-29.45Q31.15-29.45 32.98-29.08 34.8-28.7 34.8-28.3L34.8-28.3 33.8-24.15Q32.95-24.3 28.78-24.48 24.6-24.65 16.65-24.65L16.65-24.65 14.1-24.65Q10.1-24.65 10.1-21.1L10.1-21.1 10.1-8.35Q10.1-6.65 10.98-5.73 11.85-4.8 14.1-4.8L14.1-4.8 16.15-4.8Q20.95-4.8 24.25-4.88 27.55-4.95 29.7-5L29.7-5 29.7-11.8 26.7-11.75 20.15-11.25 20.15-16.15 36.25-16.15 36.25-2.1 36.75-1.05Q36.75-0.65 34.65-0.33 32.55 0 27.55 0L27.55 0ZM46.3-25.55L46.3-25.55Q44.45-25.55 43.6-26.3 42.75-27.05 42.75-28.8L42.75-28.8Q42.75-30.6 43.57-31.33 44.4-32.05 46.3-32.05L46.3-32.05Q48.2-32.05 49.05-31.33 49.9-30.6 49.9-28.8L49.9-28.8Q49.9-27.1 49.05-26.33 48.2-25.55 46.3-25.55ZM49.35 0L43.25 0 43.25-22.4 49.35-22.4 49.35 0ZM71.7 0L63.7 0 53.4-22.4 60.4-22.4 66.15-8.6 67.45-5 67.95-5 69.25-8.6 75.09-22.4 81.9-22.4 81.09-19.35 71.7 0ZM101.54 0L91.49 0Q88.99 0 87.64-0.65 86.29-1.3 85.72-2.3 85.14-3.3 85.02-4.4 84.89-5.5 84.89-6.4L84.89-6.4 84.89-16Q84.89-16.75 85.02-17.82 85.14-18.9 85.72-19.95 86.29-21 87.67-21.7 89.04-22.4 91.49-22.4L91.49-22.4 102.24-22.4Q105.54-22.4 107.42-21.78 109.29-21.15 110.07-19.75 110.84-18.35 110.84-16L110.84-16 110.84-8.6 102.09-8.6Q97.59-8.6 94.77-8.8 91.94-9 90.99-9.05L90.99-9.05 90.99-6.3Q90.94-4.3 93.39-4.3L93.39-4.3 95.94-4.3Q98.64-4.3 101.22-4.38 103.79-4.45 105.94-4.58 108.09-4.7 109.39-4.8L109.39-4.8 111.39-1.55Q111.39 0 101.54 0L101.54 0ZM90.99-16.1L90.99-12.9 104.74-12.9 104.74-16.1Q104.74-17.1 104.52-17.5 104.29-17.9 103.19-18 102.09-18.1 99.44-18.1L99.44-18.1 93.39-18.1Q90.99-18.1 90.99-16.1L90.99-16.1ZM148.34 0.5L148.34 0.5Q145.74 0.5 143.99-0.3 142.24-1.1 140.49-2.55L140.49-2.55Q139.59-1.95 138.37-1.38 137.14-0.8 135.09-0.43 133.04-0.05 129.74-0.05L129.74-0.05 125.54-0.05Q122.44-0.05 120.67-1.05 118.89-2.05 118.14-3.85 117.39-5.65 117.39-8.05L117.39-8.05 117.39-9.75Q117.39-13.65 118.94-15.75 120.49-17.85 123.39-18.5L123.39-18.5Q122.84-19.2 122.32-20.38 121.79-21.55 121.79-23.25L121.79-23.25 121.79-23.95Q121.79-25.15 122.47-26.43 123.14-27.7 124.69-28.58 126.24-29.45 128.94-29.45L128.94-29.45 134.14-29.45Q136.64-29.45 137.99-28.88 139.34-28.3 139.92-27.4 140.49-26.5 140.62-25.55 140.74-24.6 140.74-23.85L140.74-23.85 140.74-22Q140.74-21.15 140.27-20.78 139.79-20.4 138.99-20.4L138.99-20.4 134.74-20.4 134.74-22.85Q134.74-23.7 134.34-24.18 133.94-24.65 132.94-24.65L132.94-24.65 130.49-24.65Q129.39-24.65 128.92-24.18 128.44-23.7 128.44-22.85L128.44-22.85Q128.44-21.45 129.04-20.63 129.64-19.8 131.19-18.65L131.19-18.65Q132.99-17.4 134.77-16.13 136.54-14.85 138.09-13.45L138.09-13.45Q138.89-12.75 139.84-11.83 140.79-10.9 141.59-10.1 142.39-9.3 142.64-9L142.64-9 143.14-9.35 143.14-18.25 150.19-17.75 150.19-13.55Q150.19-12.5 149.92-11.7 149.64-10.9 148.79-10.05L148.79-10.05Q147.99-9.25 147.19-8.45 146.39-7.65 145.59-6.85L145.59-6.85Q147.34-5.15 149.32-4.4 151.29-3.65 152.59-3.65L152.59-3.65 151.99-0.05Q151.59 0.15 150.62 0.33 149.64 0.5 148.34 0.5ZM127.24-5.5L127.24-5.5 133.49-5.5Q135.54-5.5 136.37-5.85 137.19-6.2 137.29-6.3L137.29-6.3Q136.04-7.5 134.29-9.25 132.54-11 130.34-12.8L130.34-12.8Q128.44-14.35 126.74-14.35L126.74-14.35Q125.44-14.35 124.62-13.48 123.79-12.6 123.79-11.1L123.79-11.1 123.79-9Q123.79-7.15 124.59-6.33 125.39-5.5 127.24-5.5ZM174.24 0L167.64 0 167.59-24.65 154.59-24.65 154.59-29.45 187.29-29.45 187.29-24.65 174.24-24.65 174.24 0ZM196.24 0L193.74 0Q189.94 0 188.24-1.78 186.54-3.55 186.54-6.65L186.54-6.65Q186.54-9.9 188.31-11.65 190.09-13.4 193.74-13.4L193.74-13.4 196.29-13.4Q200.04-13.4 203.04-13.2 206.04-13 207.99-12.8L207.99-12.8 207.99-16.1Q207.99-16.55 207.89-17.03 207.79-17.5 207.29-17.8 206.79-18.1 205.59-18.1L205.59-18.1 203.09-18.1Q197.64-18.1 193.99-17.93 190.34-17.75 189.04-17.6L189.04-17.6 188.49-21.4Q188.49-22.1 192.29-22.25 196.09-22.4 204.99-22.4L204.99-22.4 207.49-22.4Q209.99-22.4 211.34-21.7 212.69-21 213.26-19.95 213.84-18.9 213.96-17.82 214.09-16.75 214.09-16L214.09-16 214.09 0 209.99 0 208.04-1Q205.94-0.65 202.99-0.33 200.04 0 196.24 0L196.24 0ZM195.04-4.3L195.04-4.3 206.49-4.3Q207.59-4.3 207.79-4.5 207.99-4.7 207.99-5.75L207.99-5.75 207.99-9.6 195.04-9.6Q193.69-9.6 193.16-8.95 192.64-8.3 192.64-6.9L192.64-6.9Q192.64-5.5 193.24-4.9 193.84-4.3 195.04-4.3ZM243.78 0.5L243.78 0.5Q241.68 0.5 240.21 0 238.73-0.5 237.08-2.15L237.08-2.15Q236.93-2.3 236.28-2.95 235.63-3.6 234.86-4.4 234.08-5.2 233.43-5.85 232.78-6.5 232.58-6.7L232.58-6.7Q231.33-7.95 230.21-8.65 229.08-9.35 227.43-9.35L227.43-9.35Q226.33-9.35 226.13-9.15 225.93-8.95 225.93-7.8L225.93-7.8 225.93 0 219.83 0 219.83-31.65 225.93-31.65 225.93-13.65 227.53-13.65Q228.43-13.65 229.13-14.35L229.13-14.35Q229.58-14.8 230.83-16.15 232.08-17.5 233.66-19.2 235.23-20.9 236.53-22.35L236.53-22.35 243.88-22.35 243.08-20.8Q241.93-19.6 240.58-18.28 239.23-16.95 237.96-15.73 236.68-14.5 235.63-13.58 234.58-12.65 234.03-12.35L234.03-12.35Q235.53-11.55 236.73-10.53 237.93-9.5 239.33-8.22 240.73-6.95 242.68-5.35L242.68-5.35Q244.43-3.95 245.93-3.73 247.43-3.5 247.73-3.5L247.73-3.5 246.83 0Q246.33 0.15 245.48 0.33 244.63 0.5 243.78 0.5ZM266.88 0L256.83 0Q254.33 0 252.98-0.65 251.63-1.3 251.06-2.3 250.48-3.3 250.36-4.4 250.23-5.5 250.23-6.4L250.23-6.4 250.23-16Q250.23-16.75 250.36-17.82 250.48-18.9 251.06-19.95 251.63-21 253.01-21.7 254.38-22.4 256.83-22.4L256.83-22.4 267.58-22.4Q270.88-22.4 272.76-21.78 274.63-21.15 275.41-19.75 276.18-18.35 276.18-16L276.18-16 276.18-8.6 267.43-8.6Q262.93-8.6 260.11-8.8 257.28-9 256.33-9.05L256.33-9.05 256.33-6.3Q256.28-4.3 258.73-4.3L258.73-4.3 261.28-4.3Q263.98-4.3 266.56-4.38 269.13-4.45 271.28-4.58 273.43-4.7 274.73-4.8L274.73-4.8 276.73-1.55Q276.73 0 266.88 0L266.88 0ZM256.33-16.1L256.33-12.9 270.08-12.9 270.08-16.1Q270.08-17.1 269.86-17.5 269.63-17.9 268.53-18 267.43-18.1 264.78-18.1L264.78-18.1 258.73-18.1Q256.33-18.1 256.33-16.1L256.33-16.1Z" opacity="1" transform="matrix(1,0,0,1,0,0)" fill="#212038" class="wordmark-text-0" data-fill-palette-color="primary" id="text-0"></path></svg></g></svg></g><g transform="matrix(1,0,0,1,0,58.237730918118935)"><svg viewBox="0 0 395.52 29.117075088746567" height="29.117075088746567" width="395.52"><g transform="matrix(1,0,0,1,0,0)"><svg width="395.52" viewBox="1.75 -37.5 679.19 50" height="29.117075088746567" data-palette-color="#212038"><path d="M1.75 0L11.8 0 11.8-1.95 7.85-1.95 7.85-28.85Q7.85-29.3 7.83-29.83 7.8-30.35 7.75-30.8L7.75-30.8Q8.05-30.35 8.22-30.13 8.4-29.9 8.7-29.45L8.7-29.45 24.1-9.4 39.05-28.9Q39.45-29.45 39.75-29.85 40.05-30.25 40.45-30.8L40.45-30.8Q40.4-30.2 40.38-29.83 40.35-29.45 40.35-28.85L40.35-28.85 40.35-1.95 36.55-1.95 36.55 0 46.6 0 46.6-1.95 42.4-1.95 42.4-33.05 46.45-33.05 46.45-35 41.2-35Q36.9-29.45 32.65-23.88 28.4-18.3 24.1-12.75L24.1-12.75Q20.4-17.5 15.9-23.38 11.4-29.25 7-35L7-35 1.75-35 1.75-33.05 5.8-33.05 5.8-1.95 1.75-1.95 1.75 0ZM92.35-2.5L92.35-2.5Q93.65-3.85 94.42-5.6 95.2-7.35 95.2-9.4L95.2-9.4Q95.2-11.4 94.42-13.2 93.65-15 92.35-16.35L92.35-16.35Q91-17.65 89.17-18.43 87.35-19.2 85.3-19.2L85.3-19.2Q83.25-19.2 81.45-18.43 79.65-17.65 78.35-16.35L78.35-16.35Q77-15 76.25-13.2 75.5-11.4 75.5-9.4L75.5-9.4Q75.5-7.35 76.25-5.58 77-3.8 78.35-2.5L78.35-2.5Q79.65-1.15 81.42-0.4 83.2 0.35 85.3 0.35L85.3 0.35Q87.35 0.35 89.17-0.4 91-1.15 92.35-2.5ZM79.8-3.95L79.8-3.95Q78.75-4.95 78.15-6.35 77.55-7.75 77.55-9.4L77.55-9.4Q77.55-11 78.15-12.4 78.75-13.8 79.8-14.9L79.8-14.9Q80.85-15.95 82.25-16.55 83.65-17.15 85.25-17.15L85.25-17.15Q86.85-17.15 88.27-16.55 89.7-15.95 90.75-14.9L90.75-14.9Q91.85-13.8 92.45-12.4 93.05-11 93.05-9.4L93.05-9.4Q93.05-7.75 92.45-6.35 91.85-4.95 90.75-3.95L90.75-3.95Q89.7-2.85 88.27-2.25 86.85-1.65 85.25-1.65L85.25-1.65Q83.65-1.65 82.25-2.25 80.85-2.85 79.8-3.95ZM124.05 0L133.7 0 133.7-1.95 130-1.95 130-10.25Q130-11.75 130.62-13 131.25-14.25 132.35-15.2L132.35-15.2Q133.35-16.1 134.75-16.6 136.15-17.1 137.7-17.1L137.7-17.1Q139.8-17 140.87-15.83 141.95-14.65 142.05-13L142.05-13 142.05-1.95 138.15-1.95 138.15 0 147.8 0 147.8-1.95 144.1-1.95 144.1-13.55Q144-16.05 142.4-17.6 140.8-19.15 138.05-19.15L138.05-19.15Q135.25-19.15 133.05-17.7 130.85-16.25 129.85-13.9L129.85-13.9Q129.8-14.75 129.75-15.43 129.7-16.1 129.65-16.95L129.65-16.95 129.6-18.75 124.35-18.75 124.35-16.8 127.95-16.8 127.95-1.95 124.05-1.95 124.05 0ZM186.45-17.15L186.45-17.15Q188.4-17.15 189.97-16.07 191.55-15 192.45-13.3L192.45-13.3Q189.05-11.95 185.67-10.63 182.3-9.3 178.9-7.95L178.9-7.95Q178.55-9.65 178.95-11.28 179.35-12.9 180.35-14.2L180.35-14.2Q181.4-15.55 182.97-16.35 184.55-17.15 186.45-17.15ZM193-2.25L193-2.25 191.75-3.75Q190.7-2.75 189.35-2.2 188-1.65 186.45-1.65L186.45-1.65Q184.1-1.65 182.25-2.85 180.4-4.05 179.5-6L179.5-6Q183.4-7.6 187.27-9.1 191.15-10.6 195.05-12.15L195.05-12.15Q194.55-13.65 193.75-14.93 192.95-16.2 191.9-17.1L191.9-17.1Q190.8-18.1 189.4-18.63 188-19.15 186.45-19.15L186.45-19.15Q184.4-19.15 182.62-18.38 180.85-17.6 179.5-16.3L179.5-16.3Q178.15-15 177.4-13.2 176.65-11.4 176.65-9.4L176.65-9.4Q176.65-7.35 177.4-5.6 178.15-3.85 179.5-2.5L179.5-2.5Q180.85-1.15 182.62-0.4 184.4 0.35 186.45 0.35L186.45 0.35Q188.4 0.35 190.05-0.35 191.7-1.05 193-2.25ZM226.9 12.5L236.55 12.5 236.55 10.55 233.35 10.55Q236.75 3.65 240.15-3.13 243.55-9.9 246.95-16.8L246.95-16.8 250.6-16.8 250.6-18.75 241.85-18.75 241.85-16.8 244.75-16.8Q242.85-13 240.97-9.25 239.1-5.5 237.45-1.85L237.45-1.85Q235.7-5.6 233.82-9.3 231.95-13 230.1-16.8L230.1-16.8 233.3-16.8 233.3-18.75 224.05-18.75 224.05-16.8 227.9-16.8Q230-12.5 232.1-8.3 234.2-4.1 236.35 0.1L236.35 0.1Q235.05 2.7 233.72 5.3 232.4 7.9 231.15 10.55L231.15 10.55 226.9 10.55 226.9 12.5ZM328.49 0L338.54 0 338.54-1.95 334.64-1.95 334.64-33.05 345.49-33.05 345.49-27.3 347.44-27.3 347.44-35 319.79-35 319.79-27.3 321.74-27.3 321.74-33.05 332.59-33.05 332.59-1.95 328.49-1.95 328.49 0ZM376.29 0L385.94 0 385.94-1.95 382.24-1.95 382.24-10.25Q382.24-11.8 382.89-13.13 383.54-14.45 384.69-15.3L384.69-15.3Q385.69-16.15 387.02-16.63 388.34-17.1 389.84-17.1L389.84-17.1 389.94-19.15Q388.79-19.1 387.67-18.75 386.54-18.4 385.49-17.75L385.49-17.75Q384.39-17.1 383.52-16.13 382.64-15.15 382.09-13.9L382.09-13.9Q382.04-14.75 382.04-15 382.04-15.25 381.99-16.1L381.99-16.1 381.84-18.75 376.59-18.75 376.59-16.8 380.19-16.8 380.19-1.95 376.29-1.95 376.29 0ZM436.64 0L442.19 0 442.19-1.95 438.49-1.95 438.49-18.75 436.84-18.75Q436.74-17.65 436.69-16.53 436.64-15.4 436.64-14.35L436.64-14.35Q435.79-16.3 433.69-17.73 431.59-19.15 428.64-19.15L428.64-19.15Q426.54-19.15 424.77-18.38 422.99-17.6 421.64-16.3L421.64-16.3Q420.29-14.95 419.54-13.15 418.79-11.35 418.79-9.4L418.79-9.4Q418.79-7.35 419.54-5.6 420.29-3.85 421.64-2.5L421.64-2.5Q422.99-1.15 424.77-0.4 426.54 0.35 428.64 0.35L428.64 0.35Q430.14 0.35 431.47-0.05 432.79-0.45 433.84-1.15L433.84-1.15Q434.84-1.8 435.57-2.63 436.29-3.45 436.64-4.35L436.64-4.35Q436.64-3.7 436.64-3.18 436.64-2.65 436.64-2.05L436.64-2.05 436.64 0ZM428.64-17.15L428.64-17.15Q430.24-17.15 431.64-16.57 433.04-16 434.14-14.95L434.14-14.95Q435.19-13.9 435.82-12.48 436.44-11.05 436.44-9.4L436.44-9.4Q436.44-7.75 435.82-6.33 435.19-4.9 434.09-3.85L434.09-3.85Q433.04-2.8 431.64-2.23 430.24-1.65 428.64-1.65L428.64-1.65Q427.04-1.65 425.69-2.2 424.34-2.75 423.29-3.75L423.29-3.75Q422.14-4.8 421.49-6.25 420.84-7.7 420.84-9.4L420.84-9.4Q420.84-11 421.42-12.4 421.99-13.8 423.04-14.85L423.04-14.85Q424.04-15.95 425.49-16.55 426.94-17.15 428.64-17.15ZM487.04-1.8L487.04-1.8 485.74-3.35Q484.74-2.55 483.49-2.1 482.24-1.65 480.84-1.65L480.84-1.65Q479.24-1.65 477.82-2.25 476.39-2.85 475.39-3.85L475.39-3.85Q474.29-4.9 473.69-6.33 473.09-7.75 473.09-9.4L473.09-9.4Q473.09-11.05 473.69-12.48 474.29-13.9 475.44-15L475.44-15Q476.44-16 477.84-16.57 479.24-17.15 480.84-17.15L480.84-17.15Q482.09-17.15 483.19-16.8 484.29-16.45 485.19-15.8L485.19-15.8 485.19-12.1 487.09-12.1 487.09-17Q485.84-18 484.24-18.57 482.64-19.15 480.84-19.15L480.84-19.15Q478.79-19.15 477.02-18.38 475.24-17.6 473.89-16.3L473.89-16.3Q472.54-15 471.79-13.2 471.04-11.4 471.04-9.4L471.04-9.4Q471.04-7.35 471.79-5.58 472.54-3.8 473.94-2.5L473.94-2.5Q475.24-1.15 477.02-0.4 478.79 0.35 480.84 0.35L480.84 0.35Q482.64 0.35 484.19-0.23 485.74-0.8 487.04-1.8ZM515.94-1.95L515.94 0 525.59 0 525.59-1.95 521.69-1.95 521.69-6.95 524.89-10Q526.29-7.95 527.79-5.98 529.29-4 530.79-1.95L530.79-1.95 528.34-1.95 528.34 0 537.59 0 537.59-1.95 533.24-1.95Q531.49-4.3 529.79-6.63 528.09-8.95 526.39-11.35L526.39-11.35Q527.99-12.85 529.27-14.08 530.54-15.3 532.04-16.8L532.04-16.8 535.69-16.8 535.69-18.75 526.44-18.75 526.44-16.8 529.49-16.8 521.69-9.5 521.69-37.5 516.09-37.5 516.09-35.55 519.64-35.55 519.64-1.95 515.94-1.95ZM566.44 0L576.09 0 576.09-1.95 572.34-1.95 572.34-18.75 566.44-18.75 566.44-16.8 570.29-16.8 570.29-1.95 566.44-1.95 566.44 0ZM572.99-25.4L572.99-25.4Q572.99-26.1 572.49-26.58 571.99-27.05 571.34-27.05L571.34-27.05Q570.74-27.05 570.24-26.58 569.74-26.1 569.74-25.4L569.74-25.4Q569.74-24.7 570.24-24.23 570.74-23.75 571.34-23.75L571.34-23.75Q571.99-23.75 572.49-24.23 572.99-24.7 572.99-25.4ZM604.94 0L614.59 0 614.59-1.95 610.89-1.95 610.89-10.25Q610.89-11.75 611.51-13 612.14-14.25 613.24-15.2L613.24-15.2Q614.24-16.1 615.64-16.6 617.04-17.1 618.59-17.1L618.59-17.1Q620.69-17 621.76-15.83 622.84-14.65 622.94-13L622.94-13 622.94-1.95 619.04-1.95 619.04 0 628.69 0 628.69-1.95 624.99-1.95 624.99-13.55Q624.89-16.05 623.29-17.6 621.69-19.15 618.94-19.15L618.94-19.15Q616.14-19.15 613.94-17.7 611.74-16.25 610.74-13.9L610.74-13.9Q610.69-14.75 610.64-15.43 610.59-16.1 610.54-16.95L610.54-16.95 610.49-18.75 605.24-18.75 605.24-16.8 608.84-16.8 608.84-1.95 604.94-1.95 604.94 0ZM661.49 7.95L660.04 9.6Q661.44 10.95 663.36 11.73 665.29 12.5 667.69 12.5L667.69 12.5Q669.69 12.45 671.41 11.68 673.14 10.9 674.44 9.5L674.44 9.5Q675.74 8.15 676.49 6.18 677.24 4.2 677.24 1.7L677.24 1.7 677.24-16.8 680.94-16.8 680.94-18.75 675.59-18.75Q675.49-17.6 675.44-16.53 675.39-15.45 675.39-14.35L675.39-14.35Q674.49-16.35 672.34-17.75 670.19-19.15 667.39-19.15L667.39-19.15Q665.29-19.15 663.51-18.38 661.74-17.6 660.39-16.3L660.39-16.3Q659.04-14.95 658.29-13.15 657.54-11.35 657.54-9.4L657.54-9.4Q657.54-7.35 658.29-5.6 659.04-3.85 660.39-2.55L660.39-2.55Q661.74-1.2 663.51-0.43 665.29 0.35 667.39 0.35L667.39 0.35Q668.84 0.35 670.14-0.03 671.44-0.4 672.49-1.1L672.49-1.1Q673.44-1.7 674.16-2.5 674.89-3.3 675.24-4.25L675.24-4.25Q675.24-3.6 675.21-3 675.19-2.4 675.19-1.9L675.19-1.9 675.19 1.6Q675.19 3.55 674.59 5.18 673.99 6.8 672.99 7.95L672.99 7.95Q671.94 9.15 670.56 9.78 669.19 10.4 667.64 10.4L667.64 10.4Q665.84 10.4 664.19 9.73 662.54 9.05 661.49 7.95L661.49 7.95ZM667.39-17.15L667.39-17.15Q668.94-17.15 670.34-16.6 671.74-16.05 672.79-15.05L672.79-15.05Q673.89-13.95 674.54-12.5 675.19-11.05 675.19-9.4L675.19-9.4Q675.19-7.75 674.59-6.35 673.99-4.95 672.94-3.95L672.94-3.95Q671.89-2.9 670.46-2.27 669.04-1.65 667.39-1.65L667.39-1.65Q665.74-1.65 664.34-2.23 662.94-2.8 661.89-3.85L661.89-3.85Q660.84-4.9 660.21-6.33 659.59-7.75 659.59-9.4L659.59-9.4Q659.59-11 660.16-12.38 660.74-13.75 661.79-14.8L661.79-14.8Q662.79-15.9 664.24-16.53 665.69-17.15 667.39-17.15Z" opacity="1" transform="matrix(1,0,0,1,0,0)" fill="#212038" class="slogan-text-1" data-fill-palette-color="secondary" id="text-1"></path></svg></g></svg></g></svg></g></svg></g><g></g></svg></g><defs></defs></svg><rect width="395.52" height="87.3548060068655" fill="none" stroke="none" visibility="hidden"></rect></g></svg></g></svg>